<svg width="56" height="56" viewBox="0 0 56 56" fill="none" xmlns="http://www.w3.org/2000/svg">
<g filter="url(#filter0_d_512_9783)">
<circle cx="28" cy="25" r="18" fill="white"/>
</g>
<path d="M20 21.5008C19.9999 20.9027 20.1142 20.3107 20.3363 19.7592C20.5584 19.2078 20.8838 18.7079 21.2935 18.289C21.7031 17.87 22.1888 17.5403 22.7222 17.3191C23.2556 17.0979 23.826 16.9897 24.4 17.0008C25.0792 16.997 25.7514 17.1437 26.372 17.431C26.9926 17.7183 27.5476 18.1398 28 18.6674C28.4524 18.1398 29.0074 17.7183 29.628 17.431C30.2486 17.1437 30.9208 16.997 31.6 17.0008C32.174 16.9897 32.7444 17.0979 33.2778 17.3191C33.8112 17.5403 34.2969 17.87 34.7065 18.289C35.1162 18.7079 35.4416 19.2078 35.6637 19.7592C35.8858 20.3107 36.0001 20.9027 36 21.5008C36 25.9641 30.8968 29.3341 28 32.0008C25.1096 29.3116 20 25.9674 20 21.5008Z" fill="#151A32"/>
<defs>
<filter id="filter0_d_512_9783" x="0" y="0" width="56" height="56" filterUnits="userSpaceOnUse" color-interpolation-filters="sRGB">
<feFlood flood-opacity="0" result="BackgroundImageFix"/>
<feColorMatrix in="SourceAlpha" type="matrix" values="0 0 0 0 0 0 0 0 0 0 0 0 0 0 0 0 0 0 127 0" result="hardAlpha"/>
<feOffset dy="3"/>
<feGaussianBlur stdDeviation="5"/>
<feComposite in2="hardAlpha" operator="out"/>
<feColorMatrix type="matrix" values="0 0 0 0 0 0 0 0 0 0 0 0 0 0 0 0 0 0 0.08 0"/>
<feBlend mode="normal" in2="BackgroundImageFix" result="effect1_dropShadow_512_9783"/>
<feBlend mode="normal" in="SourceGraphic" in2="effect1_dropShadow_512_9783" result="shape"/>
</filter>
</defs>
</svg>
